<?xml version="1.0" encoding="utf-8"?>
<!-- Generator: Adobe Illustrator 19.0.0, SVG Export Plug-In . SVG Version: 6.00 Build 0)  -->
<!DOCTYPE svg PUBLIC "-//W3C//DTD SVG 1.1//EN" "http://www.w3.org/Graphics/SVG/1.1/DTD/svg11.dtd">
<svg version="1.1" id="Layer_1" xmlns="http://www.w3.org/2000/svg" xmlns:xlink="http://www.w3.org/1999/xlink" x="0px" y="0px"
	 viewBox="0 0 1280 800" style="enable-background:new 0 0 1280 800;" xml:space="preserve">
<path id="XMLID_5_" d="M0,0v800h1280V0H0z M634,578.8l-47.5-24L587,441l-35,29.4l-38.9-55.7l0.7,102L470,496.6v-168l41.9,22.2
	l42.9,66.7l32.4-27.2l47.1,25.2L634,578.8z M478.1,316.5l162.4-73.8l49.9,20.9l-103.9,50.7l57.5,28.2l99.3-51.2l59.6,25.3
	l-161.2,86.3L478.1,316.5z M649.5,578.7l-0.3-163.4L811,328.7v56.6l-106.2,55.3l0.3,55.2l105.7-52.9l0.3,53.8L649.5,578.7z"/>
</svg>
